<?xml version="1.0" standalone="no"?>
<!DOCTYPE svg PUBLIC "-//W3C//DTD SVG 20010904//EN"
 "http://www.w3.org/TR/2001/REC-SVG-20010904/DTD/svg10.dtd">
<svg version="1.0" xmlns="http://www.w3.org/2000/svg"
 width="51.000000pt" height="48.000000pt" viewBox="0 0 51.000000 48.000000"
 preserveAspectRatio="xMidYMid meet">

<g transform="translate(0.000000,48.000000) scale(0.100000,-0.100000)"
fill="#000000" stroke="none">
<path d="M131 346 c-17 -18 -22 -34 -20 -65 2 -22 -2 -46 -9 -53 -14 -14 -16
-118 -2 -118 6 0 10 24 10 54 0 56 13 77 33 57 15 -15 70 -14 86 2 19 19 41
-18 41 -71 0 -26 4 -41 10 -37 15 9 12 76 -5 109 -8 15 -12 38 -9 51 7 27 -18
80 -41 89 -34 13 -72 6 -94 -18z m109 -28 c13 -25 13 -31 0 -55 -17 -31 -56
-41 -90 -23 -25 13 -28 71 -4 95 25 25 75 16 94 -17z"/>
<path d="M295 340 c-4 -6 18 -10 59 -10 37 0 66 4 66 10 0 6 -26 10 -59 10
-33 0 -63 -4 -66 -10z"/>
<path d="M295 270 c-4 -6 18 -10 59 -10 37 0 66 4 66 10 0 6 -26 10 -59 10
-33 0 -63 -4 -66 -10z"/>
<path d="M310 200 c0 -5 25 -10 55 -10 30 0 55 5 55 10 0 6 -25 10 -55 10 -30
0 -55 -4 -55 -10z"/>
<path d="M310 130 c0 -5 25 -10 55 -10 30 0 55 5 55 10 0 6 -25 10 -55 10 -30
0 -55 -4 -55 -10z"/>
</g>
</svg>
