<?xml version="1.0" standalone="no"?>
<!DOCTYPE svg PUBLIC "-//W3C//DTD SVG 20010904//EN"
 "http://www.w3.org/TR/2001/REC-SVG-20010904/DTD/svg10.dtd">
<svg version="1.0" xmlns="http://www.w3.org/2000/svg"
 width="45.000000pt" height="45.000000pt" viewBox="0 0 45.000000 45.000000"
 preserveAspectRatio="xMidYMid meet">

<g transform="translate(0.000000,45.000000) scale(0.100000,-0.100000)"
fill="#000000" stroke="none">
<path d="M95 410 c-4 -6 -4 -14 -1 -17 3 -4 6 -1 6 5 0 9 39 12 135 12 l135 0
2 -102 2 -103 5 99 c6 102 21 132 41 84 l10 -23 -3 25 -2 25 -162 3 c-109 2
-164 -1 -168 -8z"/>
<path d="M183 360 c-39 -24 -53 -48 -53 -95 0 -29 8 -45 35 -72 36 -36 49 -38
139 -21 12 2 20 -4 22 -17 4 -25 71 -88 87 -82 7 2 14 12 15 21 5 22 -55 86
-78 86 -26 0 -29 9 -14 38 8 15 13 41 13 57 -2 27 -2 27 -6 5 -12 -74 -49
-110 -113 -110 -43 0 -90 47 -90 90 0 60 36 98 105 113 16 4 15 5 -5 6 -14 0
-39 -8 -57 -19z m206 -224 c45 -47 31 -70 -15 -25 -32 31 -44 59 -26 59 4 0
23 -15 41 -34z"/>
<path d="M270 366 c0 -2 7 -7 16 -10 8 -3 12 -2 9 4 -6 10 -25 14 -25 6z"/>
<path d="M285 299 c-42 -45 -51 -50 -67 -40 -17 11 -18 10 -8 -9 6 -11 14 -20
18 -20 12 0 116 109 110 115 -3 3 -27 -18 -53 -46z"/>
<path d="M22 58 c3 -23 5 -23 169 -26 139 -2 168 0 179 13 14 17 0 21 -17 4
-13 -13 -33 -4 -33 17 0 11 -26 14 -151 14 -150 0 -150 0 -147 -22z m288 -3
c0 -13 -20 -15 -137 -13 -98 2 -138 6 -141 16 -3 9 29 12 137 12 120 0 141 -2
141 -15z"/>
</g>
</svg>
