<?xml version="1.0" standalone="no"?>
<!DOCTYPE svg PUBLIC "-//W3C//DTD SVG 20010904//EN"
 "http://www.w3.org/TR/2001/REC-SVG-20010904/DTD/svg10.dtd">
<svg version="1.0" xmlns="http://www.w3.org/2000/svg"
 width="40.000000pt" height="44.000000pt" viewBox="0 0 40.000000 44.000000"
 preserveAspectRatio="xMidYMid meet">

<g transform="translate(0.000000,44.000000) scale(0.100000,-0.100000)"
fill="#000000" stroke="none">
<path d="M23 433 c-10 -3 -13 -56 -13 -213 0 -180 2 -209 16 -214 9 -3 81 -6
160 -6 l144 0 0 40 c0 32 4 40 18 40 49 0 55 54 12 95 l-30 29 0 118 0 118
-147 -1 c-82 0 -154 -3 -160 -6z m37 -188 c0 -168 -1 -175 -20 -175 -19 0 -20
7 -20 175 0 168 1 175 20 175 19 0 20 -7 20 -175z m260 75 c0 -79 -3 -100 -14
-100 -11 0 -13 10 -9 41 14 100 -94 157 -169 90 -28 -25 -33 -36 -33 -75 0
-36 6 -51 28 -73 23 -24 35 -28 82 -27 30 0 52 -2 49 -5 -2 -3 12 -21 32 -42
20 -20 33 -42 30 -48 -5 -7 -50 -11 -122 -11 l-114 0 0 175 0 175 120 0 120 0
0 -100z m-81 36 c28 -15 51 -53 51 -86 0 -10 -12 -32 -26 -49 -21 -25 -33 -31
-65 -31 -87 0 -122 93 -58 153 33 30 57 34 98 13z m51 -156 c0 -5 -7 -10 -16
-10 -8 0 -12 5 -9 10 3 6 10 10 16 10 5 0 9 -4 9 -10z m57 -32 c37 -36 40 -49
18 -68 -13 -11 -22 -7 -55 25 -37 36 -39 40 -23 57 21 23 21 23 60 -14z m-32
-118 c-3 -6 -54 -11 -113 -12 l-107 -2 115 -6 115 -6 -152 -2 c-122 -2 -153 1
-153 11 0 8 3 17 7 20 11 12 295 8 288 -3z"/>
</g>
</svg>
